<svg width="28" height="41" viewBox="0 0 28 41" fill="none" xmlns="http://www.w3.org/2000/svg">
<path fill-rule="evenodd" clip-rule="evenodd" d="M17.22 13.8079C17.1897 13.8593 17.1488 13.9036 17.1 13.9379H17.11C17.0254 13.9971 16.923 14.0253 16.82 14.0179C16.7086 14.008 16.6034 13.9624 16.52 13.8879L14.5 11.8779V18.9479C14.5 19.0805 14.4473 19.2077 14.3536 19.3015C14.2598 19.3953 14.1326 19.4479 14 19.4479C13.8674 19.4479 13.7402 19.3953 13.6464 19.3015C13.5527 19.2077 13.5 19.0805 13.5 18.9479V11.8979L11.5 13.8979C11.4243 13.9696 11.3261 14.0127 11.2222 14.02C11.1182 14.0273 11.0149 13.9983 10.93 13.9379H10.91C10.8629 13.9027 10.8242 13.8576 10.7965 13.8058C10.7689 13.7539 10.753 13.6966 10.75 13.6379C10.7425 13.5805 10.7476 13.5222 10.7649 13.4669C10.7821 13.4117 10.8112 13.3609 10.85 13.3179L13.65 10.5179C13.7435 10.4263 13.8691 10.375 14 10.375C14.1309 10.375 14.2565 10.4263 14.35 10.5179L17.15 13.3179C17.2143 13.3824 17.2559 13.4661 17.2685 13.5562C17.2811 13.6464 17.2641 13.7383 17.22 13.8179V13.8079ZM18 15.9479H19.5C20.0304 15.9479 20.5391 16.1586 20.9142 16.5337C21.2893 16.9088 21.5 17.4175 21.5 17.9479V27.9479C21.5 28.4784 21.2893 28.9871 20.9142 29.3621C20.5391 29.7372 20.0304 29.9479 19.5 29.9479H8.5C7.96957 29.9479 7.46086 29.7372 7.08579 29.3621C6.71071 28.9871 6.5 28.4784 6.5 27.9479V17.9479C6.5 17.4175 6.71071 16.9088 7.08579 16.5337C7.46086 16.1586 7.96957 15.9479 8.5 15.9479H10C10.1305 15.9471 10.2561 15.9974 10.35 16.0879C10.45 16.1879 10.5 16.3079 10.5 16.4379C10.4981 16.5698 10.4442 16.6956 10.35 16.7879C10.2577 16.8821 10.1319 16.9361 10 16.9379H8.4C7.9 16.9379 7.5 17.3379 7.5 17.8379V28.0379C7.5 28.2766 7.59482 28.5055 7.7636 28.6743C7.93239 28.8431 8.16131 28.9379 8.4 28.9379H19.6C20.1 28.9379 20.5 28.5379 20.5 28.0379V17.8379C20.5 17.3379 20.1 16.9379 19.6 16.9379H18C17.8674 16.9379 17.7402 16.8853 17.6464 16.7915C17.5527 16.6977 17.5 16.5705 17.5 16.4379C17.5 16.3053 17.5527 16.1781 17.6464 16.0844C17.7402 15.9906 17.8674 15.9379 18 15.9379V15.9479Z" fill="#6B6B6B"/>
</svg>
