<svg width="14" height="13" viewBox="0 0 14 13" fill="none" xmlns="http://www.w3.org/2000/svg">
<path d="M11.3839 3.9797L5.20165 0.888593C1.04888 -1.19141 -0.655569 0.513038 1.42443 4.66582L2.05276 5.92248C2.23332 6.29082 2.23332 6.71693 2.05276 7.08526L1.42443 8.3347C-0.655569 12.4875 1.04165 14.1919 5.20165 12.1119L11.3839 9.02082C14.1572 7.63415 14.1572 5.36637 11.3839 3.9797ZM9.0511 7.04193H5.1511C4.85499 7.04193 4.60943 6.79637 4.60943 6.50026C4.60943 6.20415 4.85499 5.95859 5.1511 5.95859H9.0511C9.34721 5.95859 9.59276 6.20415 9.59276 6.50026C9.59276 6.79637 9.34721 7.04193 9.0511 7.04193Z" fill="white"/>
</svg>
