<svg width="18" height="19" viewBox="0 0 18 19" fill="none" xmlns="http://www.w3.org/2000/svg">
<path d="M13.3839 6.9797L7.20165 3.88859C3.04888 1.80859 1.34443 3.51304 3.42443 7.66582L4.05276 8.92248C4.23332 9.29082 4.23332 9.71693 4.05276 10.0853L3.42443 11.3347C1.34443 15.4875 3.04165 17.1919 7.20165 15.1119L13.3839 12.0208C16.1572 10.6341 16.1572 8.36637 13.3839 6.9797ZM11.0511 10.0419H7.1511C6.85499 10.0419 6.60943 9.79637 6.60943 9.50026C6.60943 9.20415 6.85499 8.95859 7.1511 8.95859H11.0511C11.3472 8.95859 11.5928 9.20415 11.5928 9.50026C11.5928 9.79637 11.3472 10.0419 11.0511 10.0419Z" fill="white"/>
</svg>
