<svg width="35" height="50" viewBox="0 0 35 50" fill="none" xmlns="http://www.w3.org/2000/svg">
<path d="M15.2841 20.0884L20.4393 12.144L25.5945 20.0884L34.3032 33.4882C35.5954 35.4856 35.0267 38.1701 33.0292 39.476C32.2967 39.9492 31.4822 40.1722 30.6723 40.1722C29.2618 40.1722 27.8741 39.476 27.0414 38.202L20.4348 28.0327L15.2796 20.0884H15.2841Z" fill="#D11F26"/>
<path d="M19.7159 29.1473L14.5607 37.0916L9.40555 29.1473L0.696816 15.7475C-0.595389 13.75 -0.0266351 11.0655 1.97082 9.75963C2.70338 9.28643 3.51783 9.06348 4.32773 9.06348C5.73824 9.06348 7.12599 9.75963 7.95865 11.0336L14.5653 21.2029L19.7204 29.1473H19.7159Z" fill="#D11F26"/>
<path d="M19.7159 29.1472L14.5607 37.0915L7.95407 47.2608C6.65277 49.2674 3.97735 49.8407 1.96625 48.5348C-0.0312128 47.2335 -0.599967 44.5581 0.692239 42.547L9.40098 29.1472L14.5561 21.2029L19.7113 29.1472H19.7159Z" fill="#D11F26"/>
<path d="M15.2841 20.0882L20.4393 12.1439L27.0459 1.97457C28.3472 -0.0319921 31.0226 -0.605295 33.0337 0.700561C35.0312 2.00187 35.6 4.67728 34.3077 6.68839L25.599 20.0882L20.4438 28.0325L15.2887 20.0882H15.2841Z" fill="#D11F26"/>
</svg>
